<svg width="39" height="33" viewBox="0 0 39 33" fill="none" xmlns="http://www.w3.org/2000/svg">
<path d="M19.5 0C30.2699 0 39 7.38577 39 16.4972C39 25.6086 30.2699 32.9944 19.5 32.9944C8.73013 32.9944 0 25.6086 0 16.4972C0 7.38577 8.73013 0 19.5 0ZM19.5 31.1997C29.046 31.1997 36.8787 24.5732 36.8787 16.4972C36.8787 8.42115 29.046 1.79468 19.5 1.79468C9.95398 1.79468 2.12134 8.42115 2.12134 16.4972C2.12134 24.5732 9.95398 31.1997 19.5 31.1997Z" fill="white"/>
<path d="M19.0918 7.04101L30.2696 16.4974L19.0918 25.9539L17.6232 24.6424L27.1692 16.4974L17.6232 8.3525L19.0918 7.04101Z" fill="white"/>
<path d="M28.7196 17.4629L9.13795 17.4629V15.5305L28.7196 15.5305V17.4629Z" fill="white"/>
</svg>
