<svg width="29" height="28" viewBox="0 0 29 28" fill="none" xmlns="http://www.w3.org/2000/svg">
<path fill-rule="evenodd" clip-rule="evenodd" d="M9.27727 1.79439C9.18332 1.51618 9.13634 1.37707 9.12653 1.25348C9.09714 0.883198 9.27661 0.530803 9.59338 0.336822C9.69911 0.272075 9.83925 0.228266 10.1195 0.140649C10.3998 0.0530324 10.5399 0.00922408 10.665 0.00181243C11.0398 -0.0203917 11.4003 0.163206 11.6027 0.479388C11.6703 0.584925 11.7173 0.724032 11.8112 1.00225L14.6799 9.49651L12.1459 10.2887L9.27727 1.79439ZM9.86507 14.5955L0.95717 17.3802C0.713211 17.4564 0.591231 17.4946 0.497463 17.5479C0.154441 17.7432 -0.0376343 18.1203 0.00617138 18.5126C0.0181459 18.6198 0.0590372 18.7409 0.14082 18.9831C0.222602 19.2252 0.263494 19.3463 0.319314 19.4398C0.523516 19.7819 0.90931 19.9784 1.3061 19.9424C1.41457 19.9325 1.53655 19.8944 1.78051 19.8181L10.6884 17.0334L9.86507 14.5955ZM14.8904 18.4152L17.759 26.9094C17.8529 27.1877 17.8999 27.3268 17.9675 27.4323C18.1699 27.7485 18.5304 27.9321 18.9052 27.9099C19.0303 27.9025 19.1704 27.8587 19.4507 27.771C19.731 27.6834 19.8711 27.6396 19.9768 27.5749C20.2936 27.3809 20.4731 27.0285 20.4437 26.6582C20.4339 26.5346 20.3869 26.3955 20.2929 26.1173L17.4243 17.6231L14.8904 18.4152ZM19.135 14.393L28.0428 11.6083C28.2868 11.532 28.4088 11.4939 28.5025 11.4405C28.8456 11.2453 29.0376 10.8681 28.9938 10.4759C28.9819 10.3686 28.941 10.2476 28.8592 10.0054C28.7774 9.76323 28.7365 9.64214 28.6807 9.54862C28.4765 9.20651 28.0907 9.01002 27.6939 9.04605C27.5854 9.0559 27.4634 9.09403 27.2195 9.17029L18.3116 11.955L19.135 14.393Z" fill="#E8C5B0"/>
</svg>
