<svg width="1231" height="583" viewBox="0 0 1231 583" fill="none" xmlns="http://www.w3.org/2000/svg">
<circle cx="1131.55" cy="324.618" r="31.0014" stroke="#1D4645" stroke-width="3"/>
<circle cx="32.5014" cy="119.609" r="31.0014" stroke="#1D4645" stroke-width="3"/>
<path fill-rule="evenodd" clip-rule="evenodd" d="M129.686 324.106C129.542 323.663 129.47 323.441 129.486 323.243C129.506 322.979 129.631 322.733 129.833 322.561C129.984 322.432 130.206 322.36 130.649 322.216L130.649 322.216C131.092 322.072 131.314 322 131.512 322.016C131.777 322.036 132.022 322.161 132.194 322.363C132.323 322.514 132.395 322.736 132.539 323.179L135.784 333.165L132.931 334.092L129.686 324.106ZM130.363 339.133L120.376 342.378L120.376 342.378L120.376 342.378C119.933 342.522 119.711 342.594 119.56 342.723C119.358 342.895 119.233 343.14 119.213 343.405C119.197 343.603 119.269 343.825 119.413 344.268C119.557 344.711 119.629 344.933 119.758 345.084C119.93 345.285 120.176 345.41 120.44 345.431C120.638 345.447 120.86 345.375 121.303 345.231L131.29 341.986L130.363 339.133ZM136.021 343.603L139.266 353.59C139.41 354.033 139.482 354.255 139.611 354.406C139.783 354.608 140.029 354.733 140.293 354.754C140.491 354.769 140.713 354.697 141.156 354.553L141.156 354.553C141.599 354.409 141.821 354.337 141.972 354.208C142.174 354.036 142.299 353.791 142.32 353.526C142.335 353.328 142.263 353.106 142.119 352.663L138.874 342.676L136.021 343.603ZM140.801 338.896L150.787 335.651C151.23 335.507 151.452 335.435 151.603 335.306C151.805 335.134 151.93 334.889 151.951 334.624C151.966 334.426 151.894 334.204 151.75 333.761C151.606 333.318 151.534 333.096 151.405 332.945C151.233 332.743 150.988 332.618 150.723 332.598C150.525 332.582 150.303 332.654 149.86 332.798L139.874 336.043L140.801 338.896Z" fill="#1D4645"/>
<path fill-rule="evenodd" clip-rule="evenodd" d="M1208.73 2.09255C1208.59 1.6494 1208.52 1.42782 1208.53 1.22951C1208.55 0.9651 1208.68 0.719787 1208.88 0.547535C1209.03 0.418351 1209.25 0.346359 1209.7 0.202376L1209.7 0.202364C1210.14 0.0583737 1210.36 -0.0136187 1210.56 0.00198903C1210.82 0.0227989 1211.07 0.147794 1211.24 0.349474C1211.37 0.500735 1211.44 0.722313 1211.59 1.16547L1214.83 11.1516L1211.98 12.0787L1208.73 2.09255ZM1209.41 17.1193L1199.42 20.364L1199.42 20.364L1199.42 20.3641C1198.98 20.508 1198.76 20.58 1198.61 20.7092C1198.41 20.8815 1198.28 21.1268 1198.26 21.3912C1198.24 21.5895 1198.32 21.8111 1198.46 22.2542C1198.6 22.6974 1198.68 22.919 1198.81 23.0702C1198.98 23.2719 1199.22 23.3969 1199.49 23.4177C1199.69 23.4333 1199.91 23.3613 1200.35 23.2173L1210.34 19.9726L1209.41 17.1193ZM1215.07 21.5896L1218.31 31.5766C1218.46 32.0197 1218.53 32.2413 1218.66 32.3926C1218.83 32.5942 1219.08 32.7192 1219.34 32.74C1219.54 32.7556 1219.76 32.6837 1220.2 32.5397L1220.2 32.5396C1220.65 32.3957 1220.87 32.3237 1221.02 32.1945C1221.22 32.0222 1221.35 31.7769 1221.37 31.5125C1221.38 31.3142 1221.31 31.0926 1221.17 30.6495L1217.92 20.6626L1215.07 21.5896ZM1219.85 16.8824L1229.83 13.6377C1230.28 13.4937 1230.5 13.4217 1230.65 13.2925C1230.85 13.1203 1230.98 12.8749 1231 12.6105C1231.01 12.4122 1230.94 12.1906 1230.8 11.7475C1230.65 11.3043 1230.58 11.0828 1230.45 10.9315C1230.28 10.7298 1230.03 10.6048 1229.77 10.584C1229.57 10.5684 1229.35 10.6404 1228.91 10.7844L1218.92 14.0291L1219.85 16.8824Z" fill="#1D4645"/>
<path d="M229.067 571.094C229.067 571.094 204.65 568.382 182.598 553.222C160.545 538.062 149.328 513.61 149.328 513.61" stroke="#1D4645" stroke-width="2" stroke-linecap="square"/>
<path d="M229.206 571.02C229.206 571.02 222.569 572.729 218.442 575.39C214.316 578.051 213.093 581.089 213.093 581.089" stroke="#1D4645" stroke-width="2" stroke-linecap="square"/>
<path d="M229.326 571.754C229.326 571.754 223.711 566.542 221.824 563.523C219.938 560.504 218.32 556.225 218.32 556.225" stroke="#1D4645" stroke-width="2" stroke-linecap="square"/>
<path d="M967.619 72.74C967.619 72.74 989.668 61.9074 1016.41 62.8437C1043.16 63.7801 1065.76 78.3748 1065.76 78.3748" stroke="#1D4645" stroke-width="2" stroke-linecap="square"/>
<path d="M967.541 72.8777C967.541 72.8777 972.221 67.8698 974.271 63.4082C976.321 58.9466 975.721 55.7276 975.721 55.7276" stroke="#1D4645" stroke-width="2" stroke-linecap="square"/>
<path d="M967.046 72.3225C967.046 72.3225 974.582 73.7009 977.795 75.2333C981.008 76.7658 984.671 79.5055 984.671 79.5055" stroke="#1D4645" stroke-width="2" stroke-linecap="square"/>
</svg>
