<svg width="25" height="25" viewBox="0 0 25 25" fill="none" xmlns="http://www.w3.org/2000/svg">
<path fill-rule="evenodd" clip-rule="evenodd" d="M15.8009 0.683177C15.9829 0.154492 16.5591 -0.126519 17.0877 0.0555217C17.6164 0.237563 17.8974 0.81372 17.7154 1.34241L15.0785 9.00056L13.1639 8.34133L15.8009 0.683177ZM9.0005 10.372L1.34234 7.73507C0.813658 7.55303 0.237501 7.83404 0.0554598 8.36272C-0.126581 8.89141 0.15443 9.46756 0.683116 9.64961L8.34127 12.2865L9.0005 10.372ZM10.527 15.9995L7.89012 23.6576C7.70808 24.1863 7.98909 24.7625 8.51777 24.9445C9.04646 25.1266 9.62262 24.8456 9.80466 24.3169L12.4416 16.6587L10.527 15.9995ZM15.9994 14.9234L23.6576 17.5603C24.1863 17.7424 24.7624 17.4614 24.9445 16.9327C25.1265 16.404 24.8455 15.8279 24.3168 15.6458L16.6587 13.0089L15.9994 14.9234Z" fill="#E8C5B0"/>
</svg>
