<svg width="39" height="33" viewBox="0 0 39 33" fill="none" xmlns="http://www.w3.org/2000/svg">
<path d="M19.5 32.9944C8.73013 32.9944 0 25.6086 0 16.4972C0 7.38577 8.73013 0 19.5 0C30.2699 0 39 7.38577 39 16.4972C39 25.6086 30.2699 32.9944 19.5 32.9944ZM19.5 1.79468C9.95397 1.79468 2.12134 8.42116 2.12134 16.4972C2.12134 24.5732 9.95397 31.1997 19.5 31.1997C29.046 31.1997 36.8787 24.5732 36.8787 16.4972C36.8787 8.42116 29.046 1.79468 19.5 1.79468Z" fill="white"/>
<path d="M19.9082 25.9534L8.73037 16.4969L19.9082 7.04051L21.3768 8.352L11.8308 16.4969L21.3768 24.6419L19.9082 25.9534Z" fill="white"/>
<path d="M10.2804 15.5315L29.862 15.5315V17.4634L10.2804 17.4634V15.5315Z" fill="white"/>
</svg>
