<svg width="33" height="33" viewBox="0 0 33 33" fill="none" xmlns="http://www.w3.org/2000/svg">
<path fill-rule="evenodd" clip-rule="evenodd" d="M10.558 2.10911C10.4129 1.66247 10.3403 1.43914 10.356 1.23928C10.377 0.972784 10.503 0.72554 10.7062 0.551932C10.8587 0.421728 11.082 0.349167 11.5287 0.204043C11.9753 0.0589193 12.1986 -0.0136419 12.3985 0.00208948C12.665 0.0230628 12.9122 0.149041 13.0858 0.352309C13.2161 0.504761 13.2886 0.728082 13.4337 1.17473L16.704 11.2396L13.8283 12.174L10.558 2.10911ZM11.2399 17.2544L1.17475 20.5247C0.728104 20.6699 0.504782 20.7424 0.352331 20.8726C0.149063 21.0462 0.023085 21.2935 0.0021125 21.56C-0.0136161 21.7599 0.0589452 21.9832 0.204069 22.4298C0.349193 22.8765 0.421754 23.0998 0.551961 23.2522C0.725569 23.4555 0.972814 23.5815 1.23931 23.6025C1.43917 23.6182 1.6625 23.5456 2.10914 23.4005L12.1743 20.1301L11.2399 17.2544ZM16.9429 21.7598L20.2134 31.8252C20.3585 32.2718 20.4311 32.4951 20.5613 32.6476C20.7349 32.8509 20.9821 32.9768 21.2486 32.9978C21.4485 33.0136 21.6718 32.941 22.1185 32.7959C22.5651 32.6507 22.7884 32.5782 22.9409 32.448C23.1441 32.2744 23.2701 32.0271 23.2911 31.7606C23.3068 31.5608 23.2343 31.3374 23.0891 30.8908L19.8187 20.8254L16.9429 21.7598ZM21.7602 17.0155L31.8252 13.7452C32.2719 13.6001 32.4952 13.5275 32.6477 13.3973C32.8509 13.2237 32.9769 12.9765 32.9979 12.71C33.0136 12.5101 32.9411 12.2868 32.7959 11.8401C32.6508 11.3935 32.5782 11.1702 32.448 11.0177C32.2744 10.8145 32.0272 10.6885 31.7607 10.6675C31.5608 10.6518 31.3375 10.7243 30.8909 10.8695L20.8258 14.1398L21.7602 17.0155Z" fill="#E8C5B0"/>
</svg>
