<svg width="57" height="55" viewBox="0 0 57 55" fill="none" xmlns="http://www.w3.org/2000/svg">
<path fill-rule="evenodd" clip-rule="evenodd" d="M26.6466 16.2357H12.7759C10.6422 16.2357 8.90626 14.5363 8.90626 12.4474V3.78833C8.90626 1.69945 10.6422 0 12.7759 0H37.0992C39.2329 0 40.9688 1.69945 40.9688 3.78833V12.4474C40.9688 14.5363 39.2329 16.2357 37.0992 16.2357H35.4407V18.9417C35.4407 19.5404 35.1041 20.0906 34.5649 20.3731C34.3197 20.5016 34.0508 20.5652 33.7824 20.5652C33.4607 20.5652 33.14 20.4737 32.8625 20.2926L26.6466 16.2357ZM12.7759 3.24715C12.4711 3.24715 12.2231 3.48992 12.2231 3.78834V12.4474C12.2231 12.7458 12.4711 12.9886 12.7759 12.9886H27.1487C27.4761 12.9886 27.7962 13.0834 28.0686 13.2612L32.1239 15.908V14.6121C32.1239 13.7155 32.8665 12.9886 33.7823 12.9886H37.0992C37.404 12.9886 37.652 12.7458 37.652 12.4474V3.78834C37.652 3.48992 37.404 3.24715 37.0992 3.24715H12.7759ZM54.6621 45.2591H55.3301C56.2523 45.2591 57 45.9741 57 46.856V53.2437C57 54.1256 56.2523 54.8406 55.3301 54.8406H1.66992C0.74768 54.8406 0 54.1256 0 53.2437V46.856C0 45.9741 0.74768 45.2591 1.66992 45.2591H8.37054L9.48382 42.0653H1.78125C0.859008 42.0653 0.111328 41.3503 0.111328 40.4683V24.4991C0.111328 23.6172 0.859008 22.9022 1.78125 22.9022H28.5C29.4222 22.9022 30.1699 23.6172 30.1699 24.4991V40.4683C30.1699 41.3503 29.4222 42.0653 28.5 42.0653H20.7974L21.9107 45.2591H31.2832V43.6622C31.2832 39.3675 33.8294 35.6314 37.5535 33.76C35.7619 32.2944 34.623 30.1191 34.623 27.693C34.623 23.2903 38.3687 19.7084 42.9727 19.7084C47.5766 19.7084 51.3223 23.2903 51.3223 27.693C51.3223 30.1191 50.1834 32.2944 48.3918 33.76C52.1159 35.6314 54.6621 39.3675 54.6621 43.6622V45.2591ZM42.9726 22.9022C40.2103 22.9022 37.9629 25.0513 37.9629 27.693C37.9629 30.3346 40.2103 32.4837 42.9726 32.4837C45.735 32.4837 47.9824 30.3346 47.9824 27.693C47.9824 25.0513 45.735 22.9022 42.9726 22.9022ZM34.623 43.6622C34.623 39.2595 38.3687 35.6776 42.9727 35.6776C47.5766 35.6776 51.3223 39.2595 51.3223 43.6622V45.2591H34.623V43.6622ZM26.8301 26.096H3.45119V38.8714H26.8301V26.096ZM13.0045 42.0653H17.2769L18.3902 45.2591H11.8912L13.0045 42.0653ZM3.33986 51.6468H53.6602V48.453H3.33986V51.6468ZM33.0841 10.2826H17.6815C16.7702 10.2826 16.0313 9.51531 16.0313 8.56885C16.0313 7.6224 16.7702 6.85508 17.6815 6.85508H33.0841C33.9955 6.85508 34.7344 7.6224 34.7344 8.56885C34.7344 9.51531 33.9955 10.2826 33.0841 10.2826Z" fill="#E8C5B0"/>
</svg>
